<?xml version="1.0" encoding="UTF-8"?>
<svg id="Black" xmlns="http://www.w3.org/2000/svg" version="1.1" viewBox="0 0 691.4 232.2">
    <!-- Generator: Adobe Illustrator 30.2.1, SVG Export Plug-In . SVG Version: 2.1.1 Build 1)  -->
    <defs>
        <style>
      .st0 {
        fill: rgb(255, 252, 245);
      }
    </style>
    </defs>
    <g>
        <g>
            <path class="st0"
                d="M208.1,1.9V.3h6.9v1.6h-2.6v6.2h-1.7V1.9h-2.6ZM215.9,8.1V.3h2.4l2.6,5.7,2.5-5.7h2.4v7.8h-1.6V2.3l-2.6,5.9h-1.4l-2.5-5.9v5.9h-1.6Z" />
            <polygon class="st0" points="96.2 230.8 0 230.8 17.3 82.4 113.4 82.4 96.2 230.8" />
            <polygon class="st0" points="129.7 230.8 225.7 230.8 198.1 .3 101.9 .3 129.7 230.8" />
        </g>
        <g>
            <path class="st0"
                d="M334.6,131.8h-25.9l-5.9,16.8h-11l24.7-66.1h10.6l24.8,66.1h-11.2l-6-16.8ZM331.2,122.3l-9.6-26.7-9.4,26.7h19.1Z" />
            <path class="st0"
                d="M359.7,144.9c-2.7-3.1-4.1-8.1-4.1-14.7v-27.9h10.2v27.1c0,4,.7,6.9,2.1,8.6s3.6,2.6,6.7,2.6c6.9,0,10.4-4.6,10.4-13.8v-24.5h10.2v46.4h-9.7v-6.1c-3,4.7-7.5,7.1-13.5,7.1s-9.6-1.6-12.3-4.7Z" />
            <path class="st0"
                d="M408,136.9v-25.8h-6.4v-9h6.4v-13.3h10.2v13.3h9.6v9h-9.6v23.4c0,2,.4,3.5,1.2,4.4.8.9,2.2,1.4,4.4,1.4s2.5-.2,4.1-.5v8.8c-2.6.6-4.8.8-6.6.8-8.8,0-13.2-4.2-13.2-12.6Z" />
            <path class="st0"
                d="M474.6,134.6c-1.6,5.3-4.2,9.1-7.9,11.5-3.7,2.4-8,3.6-12.8,3.6s-12.3-2.2-16.5-6.6c-4.2-4.4-6.3-10.3-6.3-17.7s2.1-13.8,6.3-18c4.2-4.2,9.5-6.3,15.8-6.3s11.6,2.2,15.5,6.6c3.8,4.4,5.8,10,5.8,16.8v2.8h-32.8c.3,4.5,1.5,7.9,3.6,10.2s5,3.4,8.6,3.4c5.2,0,8.6-2.1,10.3-6.4h10.5ZM441.9,120.3h21.8c-.6-7.2-4.1-10.8-10.5-10.8s-10.1,3.6-11.3,10.8Z" />
            <path class="st0"
                d="M491.2,124.8l-14.7-22.6h11.8l9.1,14.6,9-14.6h11.5l-14.8,22.5,15.7,24h-11.8l-9.9-16-9.8,16h-11.5l15.6-23.9Z" />
            <path class="st0"
                d="M334.6,214h-25.9l-5.9,16.8h-11l24.7-66.1h10.6l24.8,66.1h-11.2l-6-16.8ZM331.2,204.5l-9.6-26.7-9.4,26.7h19.1Z" />
            <path class="st0"
                d="M358.9,225.3c-4-4.4-6-10.3-6-17.7s2-13.2,6-17.7c4-4.4,9.4-6.6,16.1-6.6s10,1.5,13.7,4.4c3.7,2.9,6.2,7,7.2,12.1h-10.5c-1.7-5-5.2-7.6-10.5-7.6s-6.8,1.3-8.9,4c-2.1,2.6-3.2,6.4-3.2,11.3s1.1,8.7,3.2,11.3c2.1,2.6,5.1,4,8.9,4,5.6,0,9.2-2.8,10.7-8.3h10.4c-1,5.4-3.4,9.6-7.2,12.7-3.8,3.1-8.4,4.6-13.9,4.6s-12.1-2.2-16.1-6.6Z" />
            <path class="st0"
                d="M406.1,225.3c-4.1-4.4-6.1-10.3-6.1-17.7s2-13.2,6.1-17.7c4.1-4.4,9.5-6.6,16.3-6.6s12.2,2.2,16.3,6.6c4.1,4.4,6.1,10.3,6.1,17.7s-2,13.2-6.1,17.7c-4.1,4.4-9.5,6.6-16.3,6.6s-12.2-2.2-16.3-6.6ZM431.3,218.9c2.1-2.6,3.2-6.4,3.2-11.3s-1.1-8.8-3.2-11.4c-2.1-2.6-5.1-3.9-8.9-3.9s-6.9,1.3-9,3.9c-2.1,2.6-3.2,6.4-3.2,11.4s1.1,8.7,3.2,11.3c2.1,2.6,5.1,4,9,4s6.8-1.3,8.9-4Z" />
            <path class="st0"
                d="M456.5,227.1c-2.7-3.1-4.1-8.1-4.1-14.7v-27.9h10.2v27.1c0,4,.7,6.9,2.1,8.6s3.6,2.6,6.7,2.6c6.9,0,10.4-4.6,10.4-13.8v-24.5h10.2v46.4h-9.7v-6.1c-3,4.7-7.5,7.1-13.5,7.1s-9.6-1.6-12.3-4.7Z" />
            <path class="st0"
                d="M505.9,228c-3.4-2.6-5.4-6.4-5.8-11.4h10c.9,4.8,4.3,7.2,10.3,7.2s9.3-1.9,9.3-5.6-.6-2.7-1.8-3.7c-1.2-.9-3.2-1.7-6.1-2.4l-4.1-.9c-5.8-1.4-10-3.2-12.5-5.3-2.5-2.2-3.8-5-3.8-8.6s1.6-7.9,4.8-10.3c3.2-2.4,7.6-3.6,13.4-3.6s10.6,1.3,14,3.8c3.3,2.5,5.2,6.2,5.6,10.9h-10.1c-.5-4.4-3.6-6.6-9.2-6.6s-8.2,1.7-8.2,5.1.6,2.7,1.7,3.6c1.1.9,3.1,1.7,5.9,2.3l4.1.9c5.9,1.3,10.1,3,12.7,5.2,2.6,2.2,3.9,5.2,3.9,8.9s-1.7,8.1-5.2,10.6c-3.5,2.5-8.3,3.7-14.5,3.7s-10.8-1.3-14.2-3.9Z" />
            <path class="st0"
                d="M549.1,219.1v-25.8h-6.4v-9h6.4v-13.3h10.2v13.3h9.6v9h-9.6v23.4c0,2,.4,3.5,1.2,4.4.8.9,2.2,1.4,4.4,1.4s2.5-.2,4.1-.5v8.8c-2.6.6-4.8.8-6.6.8-8.8,0-13.2-4.2-13.2-12.6Z" />
            <path class="st0"
                d="M575.6,165.1h10.7v10.4h-10.7v-10.4ZM575.8,184.4h10.2v46.4h-10.2v-46.4Z" />
            <path class="st0"
                d="M600.3,225.3c-4-4.4-6-10.3-6-17.7s2-13.2,6-17.7c4-4.4,9.4-6.6,16.1-6.6s10,1.5,13.7,4.4c3.7,2.9,6.2,7,7.2,12.1h-10.5c-1.7-5-5.2-7.6-10.5-7.6s-6.8,1.3-8.9,4c-2.1,2.6-3.2,6.4-3.2,11.3s1.1,8.7,3.2,11.3c2.1,2.6,5.1,4,8.9,4,5.6,0,9.2-2.8,10.7-8.3h10.4c-1,5.4-3.4,9.6-7.2,12.7-3.8,3.1-8.4,4.6-13.9,4.6s-12.1-2.2-16.1-6.6Z" />
            <path class="st0"
                d="M646.8,228c-3.4-2.6-5.4-6.4-5.8-11.4h10c.9,4.8,4.3,7.2,10.3,7.2s9.2-1.9,9.2-5.6-.6-2.7-1.8-3.7c-1.2-.9-3.2-1.7-6.1-2.4l-4.1-.9c-5.8-1.4-9.9-3.2-12.5-5.3-2.5-2.2-3.8-5-3.8-8.6s1.6-7.9,4.8-10.3,7.6-3.6,13.3-3.6,10.6,1.3,14,3.8c3.3,2.5,5.2,6.2,5.6,10.9h-10.1c-.5-4.4-3.6-6.6-9.1-6.6s-8.2,1.7-8.2,5.1.6,2.7,1.7,3.6c1.1.9,3.1,1.7,5.9,2.3l4.1.9c5.8,1.3,10.1,3,12.7,5.2,2.6,2.2,3.9,5.2,3.9,8.9s-1.7,8.1-5.2,10.6c-3.5,2.5-8.3,3.7-14.5,3.7s-10.8-1.3-14.2-3.9Z" />
        </g>
    </g>
    <path class="st0"
        d="M674.6,172.3c0-4.5,3.5-8,8-8s8,3.5,8,8-3.6,8-8.1,8-8-3.5-8-8ZM688.9,172.3c0-3.7-2.6-6.3-6.2-6.3s-6.3,2.7-6.3,6.3,2.6,6.3,6.2,6.3,6.3-2.7,6.3-6.3ZM679.7,167.9h3.3c2,0,3,1.2,3,2.8s-.4,2-1.6,2.5l2.3,3h-2.3l-1.9-2.6h-1v2.6h-1.8v-8.3ZM683,171.9c.8,0,1.3-.5,1.3-1.2s-.5-1.2-1.3-1.2h-1.4v2.4h1.4Z" />
</svg>
